<svg enable-background="new 0 0 44 44" height="44" viewBox="0 0 44 44" width="44" xmlns="http://www.w3.org/2000/svg"><path d="m0 0h44v44h-44z" fill="none"/><path d="m1.4402 23.7816c.1289.8848.9727 1.4473 2.1738 1.4473 1.1367 0 1.9746-.6152 1.9746-1.4531 0-.7207-.5273-1.1777-1.6934-1.4707l-1.084-.2812c-1.5293-.3867-2.1914-1.0781-2.1914-2.2793 0-1.4355 1.2012-2.4082 2.9883-2.4082 1.6348 0 2.8535.9727 2.9414 2.3379h-1.0604c-.1465-.8672-.8613-1.3828-1.916-1.3828-1.125 0-1.8691.5625-1.8691 1.418 0 .6621.4629 1.043 1.6289 1.3418l.8848.2344c1.752.4395 2.4551 1.1191 2.4551 2.3613 0 1.5527-1.2246 2.543-3.1582 2.543-1.793 0-3.0293-.9492-3.1406-2.4082h1.0662zm11.8448 2.209h-.961v-.9902h-.0938c-.3164.7031-.9902 1.1016-1.957 1.1016-1.418 0-2.1562-.8438-2.1562-2.3379v-4.0898h1.0078v3.8438c0 1.1367.4219 1.6641 1.4297 1.6641 1.1133 0 1.7227-.6621 1.7227-1.7695v-3.7383h1.0078zm7.5088-3.1582c0 1.9746-1.0488 3.2695-2.6543 3.2695-.9023 0-1.6289-.3926-1.9746-1.0605h-.0938v3.0586h-1.0078v-8.4258h.9609v1.0547h.0938c.4043-.7266 1.1602-1.166 2.0215-1.166 1.6113 0 2.6543 1.2832 2.6543 3.2695zm-1.043 0c0-1.4766-.6914-2.3613-1.8457-2.3613-1.1426 0-1.8633.9082-1.8633 2.3613 0 1.4473.7207 2.3613 1.8574 2.3613 1.1602.0001 1.8516-.8847 1.8516-2.3613zm2.1889 0c0-2.0332 1.1133-3.2695 2.9121-3.2695s2.9121 1.2363 2.9121 3.2695c0 2.0273-1.1133 3.2695-2.9121 3.2695s-2.9121-1.2421-2.9121-3.2695zm4.7813 0c0-1.5-.6738-2.3613-1.8691-2.3613s-1.8691.8613-1.8691 2.3613c0 1.4941.6738 2.3613 1.8691 2.3613s1.8691-.8671 1.8691-2.3613zm2.5049-3.1582h.9609v.9375h.0938c.1875-.6152.9141-1.0488 1.752-1.0488.1641 0 .375.0117.5039.0293v1.0078c-.082-.0234-.4453-.0586-.6445-.0586-.9609 0-1.6582.6445-1.6582 1.5352v3.9141h-1.0078v-6.3165zm6.2314-1.6347v1.6348h1.4062v.8438h-1.4062v3.5742c0 .7441.2812 1.0605.9375 1.0605.1816 0 .2812-.0059.4688-.0234v.8496c-.1992.0352-.3926.0586-.5918.0586-1.3008 0-1.8223-.4805-1.8223-1.6875v-3.832h-1.0195v-.8438h1.0195v-1.6348zm7.9131 6.3164c-.293 1.0781-1.2773 1.7461-2.6602 1.7461-1.752 0-2.8477-1.2656-2.8477-3.2637 0-1.9863 1.1133-3.2754 2.8477-3.2754 1.7051 0 2.7422 1.2129 2.7422 3.1758v.3867h-4.541v.0469c.0527 1.248.75 2.0391 1.8223 2.0391.8145 0 1.3652-.2988 1.6289-.8555zm-4.459-2.045h3.4805c-.0234-1.1191-.6914-1.8574-1.6934-1.8574-1.0078 0-1.7109.7383-1.7871 1.8574z" fill="#fff"/></svg>