<svg enable-background="new 0 0 21 44" height="44" viewBox="0 0 21 44" width="21" xmlns="http://www.w3.org/2000/svg"><path d="m0 0h21v44h-21z" fill="none"/><path d="m5.1328 25.9914h-5.1328v-8.4551h1.0547v7.5059h4.0781zm.8237-3.1582c0-2.0332 1.1133-3.2695 2.9121-3.2695s2.9121 1.2363 2.9121 3.2695c0 2.0273-1.1133 3.2695-2.9121 3.2695s-2.9121-1.2422-2.9121-3.2695zm4.7813 0c0-1.5-.6738-2.3613-1.8691-2.3613s-1.8691.8613-1.8691 2.3613c0 1.4941.6738 2.3613 1.8691 2.3613s1.8691-.8672 1.8691-2.3613zm3.5361 3.4688c0 1.3008-.6094 1.8574-1.9336 1.8574h-.1758v-.8614h.1523c.7148 0 .9492-.2812.9492-.9785v-6.6445h1.0078v6.627zm-1.1953-8.5489c0-.3867.3164-.7031.7031-.7031s.7031.3164.7031.7031-.3164.7031-.7031.7031-.7031-.3164-.7031-.7031zm2.6221 6.4688c0-1.1309.832-1.7812 2.3027-1.8691l1.8223-.1113v-.5742c0-.7793-.4863-1.207-1.4297-1.207-.7559 0-1.2832.2871-1.4238.7852h-1.0195c.1348-1.0137 1.1309-1.6816 2.4785-1.6816 1.541 0 2.4023.791 2.4023 2.1035v4.3242h-.9609v-.9316h-.0938c-.4102.6738-1.1016 1.043-1.9453 1.043-1.2246-.0003-2.1328-.7268-2.1328-1.8811zm4.125-.586v-.5801l-1.6992.1113c-.9609.0645-1.3828.3984-1.3828 1.0312 0 .6445.5449 1.0195 1.2773 1.0195 1.0371.0002 1.8047-.6795 1.8047-1.5819z" fill="#fff"/></svg>