<svg enable-background="new 0 0 29 43" height="43" viewBox="0 0 29 43" width="29" xmlns="http://www.w3.org/2000/svg"><path d="m0 0h29v43h-29z" fill="none"/><path d="m7.2715 26.9987h-7.2715v-11.9775h1.4941v10.6328h5.7773v1.3447zm.9619-4.4736c0-2.8809 1.5771-4.6318 4.126-4.6318 2.5479 0 4.125 1.751 4.125 4.6318 0 2.8721-1.5771 4.6318-4.125 4.6318-2.5489 0-4.126-1.7598-4.126-4.6318zm6.7734 0c0-2.125-.9541-3.3457-2.6475-3.3457s-2.6484 1.2207-2.6484 3.3457c0 2.1162.9551 3.3447 2.6484 3.3447s2.6475-1.2285 2.6475-3.3447zm4.8057 4.914c0 1.8428-.8633 2.6309-2.7393 2.6309h-.249v-1.2197h.2158c1.0127 0 1.3447-.3984 1.3447-1.3867v-9.4131h1.4277v9.3886zm-1.6934-12.1113c0-.5479.4482-.9961.9961-.9961s.9961.4482.9961.9961-.4482.9961-.9961.9961-.9961-.4482-.9961-.9961zm3.5108 9.1641c0-1.6016 1.1787-2.5234 3.2627-2.6475l2.5811-.1582v-.8135c0-1.1035-.6885-1.71-2.0254-1.71-1.0703 0-1.8174.4072-2.0166 1.1123h-1.4443c.1904-1.4355 1.6016-2.3818 3.5107-2.3818 2.1836 0 3.4033 1.1201 3.4033 2.9795v6.126h-1.3614v-1.3193h-.1328c-.5811.9541-1.5605 1.4775-2.7559 1.4775-1.7343 0-3.0214-1.0293-3.0214-2.665zm5.8437-.8301v-.8213l-2.4072.1572c-1.3613.0918-1.959.5645-1.959 1.4609 0 .9131.7725 1.4443 1.8096 1.4443 1.4697.0001 2.5566-.9628 2.5566-2.2411z" fill="#fff"/></svg>