<svg id="Outlined" xmlns="http://www.w3.org/2000/svg" width="56" height="44" viewBox="0 0 56 44"><g id="br_globalnav_links_tvhome_image_large" data-name="br@globalnav_links_tvhome_image_large"><rect id="box_" width="56" height="44" fill="none"/><path id="art_" d="M2.9952,26V18.4941H.2706v-.9492H6.7745v.9492H4.05V26Zm7.7314,0L7.61,17.5449H8.7169l2.4844,7.09h.0937l2.4844-7.09h1.1074L11.77,26Zm13.8521-1.6348a2.5223,2.5223,0,0,1-2.66,1.7461c-1.7519,0-2.8476-1.2656-2.8476-3.2636,0-1.9864,1.1133-3.2754,2.8476-3.2754,1.7051,0,2.7422,1.2129,2.7422,3.1757v.3868H20.12v.0468c.0527,1.2481.75,2.0391,1.8223,2.0391a1.6363,1.6363,0,0,0,1.6289-.8555ZM20.12,22.32H23.6a1.7,1.7,0,0,0-1.6934-1.8574A1.7992,1.7992,0,0,0,20.12,22.32Zm9.07-.5449c0-2.7305,1.43-4.43,3.7266-4.43a3.298,3.298,0,0,1,3.4219,2.7481H35.2662a2.3234,2.3234,0,0,0-2.35-1.7754c-1.6231,0-2.6426,1.3359-2.6426,3.457s1.02,3.4512,2.6484,3.4512a2.2632,2.2632,0,0,0,2.3438-1.5821h1.0723a3.2162,3.2162,0,0,1-3.4161,2.5547C30.6256,26.1992,29.19,24.5,29.19,21.7754Zm8.294,2.4551c0-1.1309.832-1.7813,2.3027-1.8692L41.609,22.25v-.5742c0-.7793-.4864-1.207-1.43-1.207-.7559,0-1.2832.2871-1.4239.7851h-1.02c.1348-1.0137,1.1309-1.6816,2.4785-1.6816,1.541,0,2.4024.791,2.4024,2.1035V26h-.961v-.9316h-.0937a2.1822,2.1822,0,0,1-1.9453,1.0429A1.9209,1.9209,0,0,1,37.484,24.2305Zm4.125-.586v-.58l-1.6993.1113c-.9609.0644-1.3828.3984-1.3828,1.0312,0,.6446.545,1.02,1.2774,1.02A1.6616,1.6616,0,0,0,41.609,23.6445Zm4.96-4.0722a2.1276,2.1276,0,0,1,2.3789,1.6933h-.9961a1.2875,1.2875,0,0,0-1.3886-.8379c-.75,0-1.336.3809-1.336.9434,0,.4336.3516.7031,1.0957.8848l.9727.2343c1.1894.2871,1.7636.8028,1.7636,1.711,0,1.1308-1.0957,1.91-2.5312,1.91-1.4063,0-2.373-.6738-2.4844-1.7226h1.0371a1.3914,1.3914,0,0,0,1.4825.873c.85,0,1.4589-.4043,1.4589-.9844,0-.4335-.3281-.7265-1.0019-.8906l-1.084-.2637c-1.1836-.2871-1.7227-.7968-1.7227-1.7109C44.2139,20.3633,45.2276,19.5723,46.5694,19.5723Zm3.5772,4.6582c0-1.1309.832-1.7813,2.3027-1.8692l1.8223-.1113v-.5742c0-.7793-.4864-1.207-1.43-1.207-.7559,0-1.2832.2871-1.4239.7851h-1.02c.1348-1.0137,1.1309-1.6816,2.4785-1.6816,1.541,0,2.4024.791,2.4024,2.1035V26h-.961v-.9316h-.0937a2.1822,2.1822,0,0,1-1.9453,1.0429A1.9209,1.9209,0,0,1,50.1466,24.2305Zm4.125-.586v-.58l-1.6993.1113c-.9609.0644-1.3828.3984-1.3828,1.0312,0,.6446.545,1.02,1.2774,1.02A1.6616,1.6616,0,0,0,54.2716,23.6445Z" fill="#fff"/></g></svg>