<svg id="Outlined" xmlns="http://www.w3.org/2000/svg" width="78" height="43" viewBox="0 0 78 43"><g id="br_globalnav_links_tvhome_image_small" data-name="br@globalnav_links_tvhome_image_small"><rect id="box_" width="78" height="43" fill="none"/><path id="art_" d="M4.64,27V16.3667H.78V15.022H9.9941v1.3447h-3.86V27Zm10.7491,0L10.9731,15.022H12.542l3.5195,10.0439h.1328l3.52-10.0439h1.5688L16.8667,27Zm19.2153-2.3159c-.415,1.5273-1.81,2.4736-3.7686,2.4736-2.4819,0-4.0341-1.793-4.0341-4.6235,0-2.814,1.5771-4.64,4.0341-4.64,2.4156,0,3.8848,1.7183,3.8848,4.4991v.5478H28.2876v.0664c.0747,1.7681,1.0625,2.8887,2.5815,2.8887a2.3182,2.3182,0,0,0,2.3077-1.2119Zm-6.3169-2.897h4.9307a2.4086,2.4086,0,0,0-2.399-2.6313A2.5488,2.5488,0,0,0,28.2876,21.7871Zm12.4419-.772c0-3.8681,2.0254-6.2754,5.2793-6.2754a4.6721,4.6721,0,0,1,4.8476,3.8931h-1.519a3.2915,3.2915,0,0,0-3.3286-2.5151c-2.2993,0-3.7437,1.8926-3.7437,4.8974s1.4444,4.8892,3.752,4.8892a3.2061,3.2061,0,0,0,3.32-2.2412h1.519c-.3984,2.2-2.291,3.6191-4.8393,3.6191C42.7632,27.2822,40.73,24.875,40.73,21.0151Zm11.5459,3.4781c0-1.6021,1.1787-2.5235,3.2622-2.648l2.5815-.1577V20.874c0-1.104-.6889-1.71-2.0253-1.71-1.0709,0-1.8179.4067-2.0171,1.1123H52.6323c.1909-1.4361,1.6021-2.3824,3.5113-2.3824,2.1831,0,3.4033,1.1206,3.4033,2.98V27H58.1855V25.68h-.1328a3.0912,3.0912,0,0,1-2.7558,1.4775A2.7213,2.7213,0,0,1,52.2754,24.4932Zm5.8437-.83v-.8218l-2.4072.1577c-1.3613.0913-1.959.5645-1.959,1.461,0,.913.772,1.4443,1.81,1.4443A2.3539,2.3539,0,0,0,58.1191,23.6631Zm6.8228-5.7691c1.876,0,3.1792.93,3.37,2.399H66.9009a1.8241,1.8241,0,0,0-1.9673-1.187c-1.0625,0-1.8926.5395-1.8926,1.3364,0,.6142.4981.9961,1.5523,1.2534l1.3779.332c1.685.4068,2.4985,1.1372,2.4985,2.4239,0,1.602-1.5522,2.706-3.5859,2.706-1.9922,0-3.3618-.9546-3.5195-2.44h1.4692a1.9709,1.9709,0,0,0,2.1,1.2368c1.2036,0,2.0669-.5728,2.0669-1.3945,0-.6143-.4649-1.0293-1.4194-1.2617l-1.5357-.3736c-1.6767-.4067-2.44-1.1289-2.44-2.4238C61.605,19.0146,63.041,17.894,64.9419,17.894Zm4.8638,6.5992c0-1.6021,1.1787-2.5235,3.2622-2.648l2.5815-.1577V20.874c0-1.104-.689-1.71-2.0254-1.71-1.0708,0-1.8178.4067-2.0171,1.1123H70.1626c.1909-1.4361,1.602-2.3824,3.5112-2.3824,2.1831,0,3.4033,1.1206,3.4033,2.98V27H75.7158V25.68H75.583a3.0912,3.0912,0,0,1-2.7559,1.4775A2.7213,2.7213,0,0,1,69.8057,24.4932Zm5.8437-.83v-.8218l-2.4072.1577c-1.3613.0913-1.959.5645-1.959,1.461,0,.913.772,1.4443,1.81,1.4443A2.3539,2.3539,0,0,0,75.6494,23.6631Z" fill="#fff"/></g></svg>