<svg enable-background="new 0 0 60 43" height="43" viewBox="0 0 60 43" width="60" xmlns="http://www.w3.org/2000/svg"><path d="m0 0h60v43h-60z" fill="none"/><path d="m1.6653 23.8706c.1826 1.2534 1.3779 2.0503 3.0796 2.0503 1.6104 0 2.7974-.8716 2.7974-2.0586 0-1.021-.7471-1.6685-2.3989-2.0835l-1.5356-.3984c-2.1665-.5479-3.1045-1.5273-3.1045-3.229 0-2.0337 1.7017-3.4116 4.2334-3.4116 2.3159 0 4.0425 1.3779 4.167 3.312h-1.5025c-.2075-1.2285-1.2202-1.959-2.7144-1.959-1.5937 0-2.6479.7969-2.6479 2.0088 0 .938.6558 1.4775 2.3076 1.9009l1.2534.332c2.4819.6226 3.478 1.5854 3.478 3.3452 0 2.1997-1.7349 3.6025-4.4741 3.6025-2.54 0-4.2915-1.3447-4.4492-3.4116zm16.5762 3.1294h-1.3613v-1.4028h-.1328c-.4482.9961-1.4028 1.5605-2.7725 1.5605-2.0088 0-3.0547-1.1953-3.0547-3.312v-5.7939h1.4277v5.4453c0 1.6104.5977 2.3574 2.0254 2.3574 1.5771 0 2.4404-.938 2.4404-2.5068v-5.2959h1.4277v8.9482zm10.4336-4.4741c0 2.7974-1.4858 4.6318-3.7603 4.6318-1.2783 0-2.3076-.5562-2.7974-1.5024h-.1328v4.333h-1.4277v-11.9365h1.3613v1.4941h.1328c.5728-1.0293 1.6436-1.6519 2.8638-1.6519 2.2828 0 3.7603 1.8179 3.7603 4.6319zm-1.4775 0c0-2.0918-.9795-3.3452-2.6147-3.3452-1.6187 0-2.6396 1.2866-2.6396 3.3452 0 2.0503 1.021 3.3452 2.6313 3.3452 1.6435 0 2.623-1.2534 2.623-3.3452zm2.8964 0c0-2.8804 1.5771-4.6318 4.1255-4.6318s4.1255 1.7515 4.1255 4.6318c0 2.8721-1.5771 4.6318-4.1255 4.6318s-4.1255-1.7598-4.1255-4.6318zm6.7735 0c0-2.125-.9546-3.3452-2.6479-3.3452s-2.6479 1.2202-2.6479 3.3452c0 2.1167.9546 3.3452 2.6479 3.3452s2.6479-1.2285 2.6479-3.3452zm3.3447-4.4741h1.3613v1.3281h.1328c.2656-.8716 1.2949-1.4858 2.4819-1.4858.2324 0 .5312.0166.7139.0415v1.4277c-.1162-.0332-.6309-.083-.9131-.083-1.3613 0-2.3491.9131-2.3491 2.1748v5.5449h-1.4277zm8.624-2.316v2.3159h1.9922v1.1953h-1.9922v5.0635c0 1.0542.3984 1.5024 1.3281 1.5024.2573 0 .3984-.0083.6641-.0332v1.2036c-.2822.0498-.5562.083-.8384.083-1.8428 0-2.5815-.6807-2.5815-2.3906v-5.4287h-1.4443v-1.1953h1.4443v-2.3159zm11.0064 8.9483c-.415 1.5273-1.8096 2.4736-3.7686 2.4736-2.4819 0-4.0342-1.793-4.0342-4.6235 0-2.814 1.5771-4.6401 4.0342-4.6401 2.4155 0 3.8848 1.7183 3.8848 4.499v.5479h-6.4331v.0664c.0747 1.7681 1.0625 2.8887 2.5815 2.8887 1.1538 0 1.9341-.4233 2.3076-1.2119h1.4278zm-6.3169-2.897h4.9307c-.0332-1.5854-.9795-2.6313-2.3989-2.6313-1.4278 0-2.4239 1.0459-2.5318 2.6313z" fill="#fff"/></svg>