<svg id="Outlined" xmlns="http://www.w3.org/2000/svg" width="66" height="44" viewBox="0 0 66 44"><g id="br_globalnav_links_onlyonapple_image_large" data-name="br@globalnav_links_onlyonapple_image_large"><rect id="box_" width="66" height="44" fill="none"/><path id="art_" d="M1.3306,23.771c.1289.8848.9726,1.4473,2.1738,1.4473,1.1367,0,1.9746-.6153,1.9746-1.4531,0-.7207-.5273-1.1778-1.6934-1.4707l-1.0839-.2813C1.1724,21.6265.51,20.9351.51,19.7339c0-1.4355,1.2011-2.4082,2.9882-2.4082A2.6889,2.6889,0,0,1,6.44,19.6636h-1.06a1.733,1.733,0,0,0-1.916-1.3828c-1.125,0-1.8692.5625-1.8692,1.4179,0,.6622.4629,1.043,1.6289,1.3418l.8848.2344c1.752.44,2.4551,1.1192,2.4551,2.3613,0,1.5528-1.2246,2.543-3.1582,2.543-1.793,0-3.0293-.9492-3.1406-2.4082ZM7.75,22.8218c0-2.0332,1.1133-3.27,2.9121-3.27s2.9121,1.2363,2.9121,3.27c0,2.0273-1.1133,3.27-2.9121,3.27S7.75,24.8491,7.75,22.8218Zm4.7813,0c0-1.5-.6739-2.3613-1.8692-2.3613s-1.8691.8613-1.8691,2.3613c0,1.4941.6738,2.3613,1.8691,2.3613S12.5308,24.3159,12.5308,22.8218ZM10.228,18.7847l1.0371-1.9922h1.2071l-1.3535,1.9922Zm8.0747.8789h.961V20.66h.0937a1.8985,1.8985,0,0,1,1.8985-1.1074A2.0589,2.0589,0,0,1,23.4648,21.89v4.09H22.457V22.1362c0-1.1367-.48-1.6757-1.4883-1.6757a1.6015,1.6015,0,0,0-1.6582,1.7812V25.98H18.3027ZM24.81,24.2105c0-1.1309.832-1.7813,2.3027-1.8692l1.8223-.1113v-.5742c0-.7793-.4864-1.2071-1.43-1.2071-.7559,0-1.2832.2872-1.4238.7852h-1.02c.1348-1.0137,1.1309-1.6816,2.4785-1.6816,1.5411,0,2.4024.791,2.4024,2.1035V25.98h-.961v-.9316h-.0937a2.1822,2.1822,0,0,1-1.9453,1.0429A1.9209,1.9209,0,0,1,24.81,24.2105Zm4.125-.586v-.58l-1.6992.1113c-.961.0644-1.3829.3984-1.3829,1.0312,0,.6446.545,1.02,1.2774,1.02A1.6616,1.6616,0,0,0,28.9346,23.6245ZM39.7275,23.56H36.3643l-.85,2.42H34.4072l3.1172-8.4551h1.043L41.6846,25.98H40.5771Zm-3.0527-.8965H39.417L38.0928,18.89H37.999Zm11.9741.1582c0,1.9746-1.0488,3.27-2.6543,3.27A2.12,2.12,0,0,1,44.02,25.0308h-.0937v3.0586H42.9185V19.6636h.9609v1.0547h.0937a2.277,2.277,0,0,1,2.0215-1.166C47.606,19.5523,48.6489,20.8355,48.6489,22.8218Zm-1.0429,0c0-1.4766-.6914-2.3613-1.8457-2.3613-1.1426,0-1.8633.9082-1.8633,2.3613,0,1.4473.7207,2.3613,1.8574,2.3613C46.9146,25.1831,47.606,24.2984,47.606,22.8218Zm8.2353,0c0,1.9746-1.0488,3.27-2.6543,3.27a2.12,2.12,0,0,1-1.9746-1.0605h-.0937v3.0586H50.1108V19.6636h.961v1.0547h.0937a2.277,2.277,0,0,1,2.0215-1.166C54.7983,19.5523,55.8413,20.8355,55.8413,22.8218Zm-1.043,0c0-1.4766-.6914-2.3613-1.8457-2.3613-1.1425,0-1.8632.9082-1.8632,2.3613,0,1.4473.7207,2.3613,1.8574,2.3613C54.1069,25.1831,54.7983,24.2984,54.7983,22.8218Zm2.5635-5.666H58.37V25.98H57.3618Zm8.0361,7.1894a2.5221,2.5221,0,0,1-2.66,1.7461c-1.752,0-2.8477-1.2656-2.8477-3.2636,0-1.9864,1.1133-3.2754,2.8477-3.2754,1.7051,0,2.7422,1.2129,2.7422,3.1757v.3868H60.939v.0468c.0527,1.2481.75,2.0391,1.8222,2.0391a1.6361,1.6361,0,0,0,1.6289-.8555ZM60.939,22.3h3.48a1.7,1.7,0,0,0-1.6933-1.8574A1.7992,1.7992,0,0,0,60.939,22.3Z" fill="#fff"/></g></svg>