<svg enable-background="new 0 0 84 43" height="43" viewBox="0 0 84 43" width="84" xmlns="http://www.w3.org/2000/svg"><path d="m0 0h84v43h-84z" fill="none"/><path d="m8.3622 23.5718h-4.7646l-1.2037 3.4282h-1.5688l4.416-11.978h1.4775l4.4161 11.978h-1.5689zm-4.3247-1.27h3.8848l-1.876-5.3457h-.1328zm14.1025-1.5108c-.2324-.8882-1.021-1.6104-2.3076-1.6104-1.6104 0-2.623 1.2866-2.623 3.312 0 2.0669 1.0293 3.3784 2.623 3.3784 1.2036 0 2.042-.5562 2.3076-1.5688h1.4443c-.2573 1.6436-1.5938 2.8555-3.7437 2.8555-2.5068 0-4.1089-1.8179-4.1089-4.665 0-2.7891 1.5938-4.5986 4.1006-4.5986 2.1748 0 3.5029 1.3032 3.752 2.897h-1.4443zm10.5332 3.8931c-.415 1.5273-1.8096 2.4736-3.7686 2.4736-2.4819 0-4.0342-1.793-4.0342-4.6235 0-2.814 1.5771-4.6401 4.0342-4.6401 2.4155 0 3.8848 1.7183 3.8848 4.499v.5479h-6.4331v.0664c.0747 1.7681 1.0625 2.8887 2.5815 2.8887 1.1538 0 1.9341-.4233 2.3076-1.2119h1.4278zm-6.3169-2.897h4.9307c-.0332-1.5854-.9795-2.6313-2.3989-2.6313-1.4277 0-2.4238 1.0459-2.5318 2.6313zm11.4297-3.8931c1.876 0 3.1792.9297 3.3701 2.3989h-1.4111c-.1909-.7139-.8882-1.187-1.9673-1.187-1.0625 0-1.8926.5396-1.8926 1.3364 0 .6143.498.9961 1.5522 1.2534l1.3779.332c1.6851.4067 2.4985 1.1372 2.4985 2.4238 0 1.6021-1.5522 2.7061-3.5859 2.7061-1.9922 0-3.3618-.9546-3.5195-2.4404h1.4692c.2407.7554.9546 1.2368 2.1001 1.2368 1.2036 0 2.0669-.5728 2.0669-1.3945 0-.6143-.4648-1.0293-1.4194-1.2617l-1.5356-.3735c-1.6768-.4067-2.4404-1.1289-2.4404-2.4238 0-1.4859 1.4361-2.6065 3.3369-2.6065zm8.3584 0c1.876 0 3.1792.9297 3.3701 2.3989h-1.4111c-.1909-.7139-.8882-1.187-1.9673-1.187-1.0625 0-1.8926.5396-1.8926 1.3364 0 .6143.498.9961 1.5522 1.2534l1.3779.332c1.6851.4067 2.4985 1.1372 2.4985 2.4238 0 1.6021-1.5522 2.7061-3.5859 2.7061-1.9922 0-3.3618-.9546-3.5195-2.4404h1.4692c.2407.7554.9546 1.2368 2.1001 1.2368 1.2036 0 2.0669-.5728 2.0669-1.3945 0-.6143-.4648-1.0293-1.4194-1.2617l-1.5356-.3735c-1.6768-.4067-2.4404-1.1289-2.4404-2.4238 0-1.4859 1.4361-2.6065 3.3369-2.6065zm4.9468 4.6319c0-2.8804 1.5771-4.6318 4.1255-4.6318s4.1255 1.7515 4.1255 4.6318c0 2.8721-1.5771 4.6318-4.1255 4.6318s-4.1255-1.7598-4.1255-4.6318zm6.7734 0c0-2.125-.9546-3.3452-2.6479-3.3452s-2.6479 1.2202-2.6479 3.3452c0 2.1167.9546 3.3452 2.6479 3.3452s2.6479-1.2285 2.6479-3.3452zm-3.2622-5.7193 1.4692-2.8223h1.71l-1.9175 2.8223zm6.607 1.2452h1.3613v1.3281h.1328c.2656-.8716 1.2949-1.4858 2.4819-1.4858.2324 0 .5312.0166.7139.0415v1.4277c-.1162-.0332-.6309-.083-.9131-.083-1.3613 0-2.3491.9131-2.3491 2.1748v5.5449h-1.4277zm5.8515-2.7227c0-.5479.4482-.9961.9961-.9961s.9961.4482.9961.9961-.4482.9961-.9961.9961-.9961-.4482-.9961-.9961zm.2823 2.7227h1.4277v8.9482h-1.4277zm3.3281 4.4741c0-2.8804 1.5771-4.6318 4.1255-4.6318s4.1255 1.7515 4.1255 4.6318c0 2.8721-1.5771 4.6318-4.1255 4.6318s-4.1255-1.7598-4.1255-4.6318zm6.7734 0c0-2.125-.9546-3.3452-2.6479-3.3452s-2.6479 1.2202-2.6479 3.3452c0 2.1167.9546 3.3452 2.6479 3.3452s2.6479-1.2285 2.6479-3.3452zm6.4741-4.6319c1.876 0 3.1792.9297 3.3701 2.3989h-1.4111c-.1909-.7139-.8882-1.187-1.9673-1.187-1.0625 0-1.8926.5396-1.8926 1.3364 0 .6143.498.9961 1.5522 1.2534l1.3779.332c1.6851.4067 2.4985 1.1372 2.4985 2.4238 0 1.6021-1.5522 2.7061-3.5859 2.7061-1.9922 0-3.3618-.9546-3.5195-2.4404h1.4692c.2407.7554.9546 1.2368 2.1001 1.2368 1.2036 0 2.0669-.5728 2.0669-1.3945 0-.6143-.4648-1.0293-1.4194-1.2617l-1.5356-.3735c-1.6768-.4067-2.4404-1.1289-2.4404-2.4238 0-1.4859 1.4361-2.6065 3.3369-2.6065z" fill="#fff"/></svg>