<svg id="Outlined" xmlns="http://www.w3.org/2000/svg" width="91" height="43" viewBox="0 0 91 43"><g id="br_globalnav_links_onlyonapple_image_small" data-name="br@globalnav_links_onlyonapple_image_small"><rect id="box_" width="91" height="43" fill="none"/><path id="art_" d="M1.6707,23.8706c.1827,1.2534,1.378,2.05,3.08,2.05,1.61,0,2.7974-.8716,2.7974-2.0586,0-1.021-.7471-1.6685-2.3989-2.0835L3.6131,21.38C1.4466,20.8325.5086,19.853.5086,18.1514.5086,16.1177,2.21,14.74,4.742,14.74c2.3159,0,4.0425,1.378,4.167,3.3121H7.4066a2.4551,2.4551,0,0,0-2.7144-1.959c-1.5937,0-2.6479.7968-2.6479,2.0088,0,.938.6557,1.4775,2.3076,1.9008l1.2534.3321c2.4819.6225,3.478,1.5854,3.478,3.3452,0,2.2-1.7348,3.6025-4.4741,3.6025-2.54,0-4.2915-1.3447-4.4492-3.4116Zm8.89-1.3447c0-2.88,1.5771-4.6319,4.1255-4.6319s4.1255,1.7515,4.1255,4.6319c0,2.872-1.5772,4.6318-4.1255,4.6318S10.56,25.3979,10.56,22.5259Zm6.7734,0c0-2.125-.9546-3.3452-2.6479-3.3452s-2.648,1.22-2.648,3.3452c0,2.1167.9546,3.3452,2.648,3.3452S17.3338,24.6426,17.3338,22.5259Zm-3.2622-5.7193,1.4693-2.8222h1.71l-1.9175,2.8222Zm11.0308,1.2452h1.3613v1.4111h.1328a2.69,2.69,0,0,1,2.69-1.5689c2.0088,0,3.1294,1.1871,3.1294,3.3121V27H30.9876V21.5547c0-1.61-.6806-2.374-2.1084-2.374A2.2688,2.2688,0,0,0,26.53,21.7041V27H25.1024Zm9.0141,6.4414c0-1.6021,1.1788-2.5235,3.2623-2.648l2.5815-.1577V20.874c0-1.104-.689-1.71-2.0254-1.71-1.0708,0-1.8179.4067-2.0171,1.1123H34.4735c.1909-1.4361,1.602-2.3824,3.5112-2.3824,2.1831,0,3.4033,1.1206,3.4033,2.98V27H40.0267V25.68h-.1328a3.0915,3.0915,0,0,1-2.7559,1.4775A2.7214,2.7214,0,0,1,34.1165,24.4932Zm5.8438-.83v-.8218l-2.4072.1577c-1.3614.0913-1.959.5645-1.959,1.461,0,.913.772,1.4443,1.81,1.4443A2.3539,2.3539,0,0,0,39.96,23.6631Zm14.8823-.0913H50.078L48.8744,27H47.3055l4.416-11.978h1.4776L57.6151,27H56.0462Zm-4.3247-1.27h3.8848l-1.876-5.3457h-.1328Zm16.7588.2241c0,2.7973-1.4858,4.6318-3.76,4.6318a3.003,3.003,0,0,1-2.7973-1.5024h-.1328v4.333H59.1585V18.0518H60.52v1.4941h.1328a3.2257,3.2257,0,0,1,2.8637-1.6519C65.7992,17.894,67.2767,19.7119,67.2767,22.5259Zm-1.4775,0c0-2.0918-.98-3.3452-2.6148-3.3452-1.6186,0-2.64,1.2866-2.64,3.3452,0,2.05,1.021,3.3452,2.6313,3.3452C64.82,25.8711,65.7992,24.6177,65.7992,22.5259Zm11.4629,0c0,2.7973-1.4859,4.6318-3.76,4.6318a3.0033,3.0033,0,0,1-2.7974-1.5024h-.1328v4.333H69.1439V18.0518h1.3613v1.4941h.1328a3.226,3.226,0,0,1,2.8638-1.6519C75.7845,17.894,77.2621,19.7119,77.2621,22.5259Zm-1.4776,0c0-2.0918-.9795-3.3452-2.6147-3.3452-1.6187,0-2.64,1.2866-2.64,3.3452,0,2.05,1.021,3.3452,2.6314,3.3452C74.805,25.8711,75.7845,24.6177,75.7845,22.5259Zm3.4277-8.0269H80.64V27H79.2122ZM90.3929,24.6841c-.415,1.5273-1.81,2.4736-3.7685,2.4736-2.482,0-4.0342-1.793-4.0342-4.6235,0-2.814,1.5771-4.64,4.0342-4.64,2.4155,0,3.8847,1.7183,3.8847,4.4991v.5478H84.076v.0664c.0747,1.7681,1.0625,2.8887,2.5816,2.8887a2.3181,2.3181,0,0,0,2.3076-1.2119Zm-6.3169-2.897h4.9307a2.4086,2.4086,0,0,0-2.3989-2.6313A2.5489,2.5489,0,0,0,84.076,21.7871Z" fill="#fff"/></g></svg>